<svg width="65" height="65" viewBox="0 0 65 65" fill="none" xmlns="http://www.w3.org/2000/svg">
<path d="M32.015 55.4318C28.8134 55.4318 25.6184 54.7637 22.6016 53.4314C16.9019 50.9142 12.5238 46.3278 10.273 40.5168C8.02217 34.7058 8.16837 28.3659 10.6849 22.6652C13.2014 16.9641 17.7866 12.5848 23.5961 10.3335C35.5886 5.68579 49.1258 11.6641 53.7719 23.66C58.4179 35.6559 52.4416 49.1961 40.4487 53.8434C37.7142 54.9034 34.862 55.4318 32.015 55.4318ZM32.029 10.9587C29.4516 10.9587 26.8703 11.4368 24.3945 12.3961C19.1361 14.4343 14.9856 18.3985 12.7076 23.5589C10.4297 28.7192 10.2975 34.458 12.3347 39.7182C14.3723 44.978 18.3355 49.13 23.4946 51.4081C28.6537 53.6866 34.391 53.8184 39.6498 51.7811C50.5055 47.5744 55.9154 35.3179 51.7097 24.4595C49.6725 19.1993 45.7089 15.0481 40.5498 12.7696C37.8197 11.5634 34.9268 10.9587 32.029 10.9587Z" fill="#046F42"/>
<path d="M32.0234 64.0425H32.0124C31.9087 64.0425 31.805 64.0421 31.7017 64.0412L31.7143 62.7785C31.8137 62.7793 31.9131 62.7798 32.0129 62.7798L32.0234 64.0425ZM32.6682 64.0359L32.6423 62.7736C32.7456 62.7715 32.8485 62.7688 32.9514 62.7658L32.9895 64.0281C32.8826 64.0307 32.7754 64.0333 32.6682 64.0359ZM31.0569 64.0285C30.9496 64.025 30.8428 64.0215 30.736 64.0175L30.7837 62.7557C30.887 62.7596 30.9908 62.7631 31.0945 62.7662L31.0569 64.0285ZM33.6329 64.0018L33.5712 62.7408C33.6741 62.736 33.7769 62.7303 33.8794 62.7237L33.9551 63.9843C33.8483 63.9904 33.7406 63.9965 33.6329 64.0018ZM30.0921 63.9856C29.9849 63.9795 29.8776 63.9724 29.7708 63.965L29.8566 62.7053C29.9595 62.7123 30.0628 62.7193 30.1657 62.725L30.0921 63.9856ZM34.5977 63.9396L34.4983 62.6808C34.6007 62.6729 34.7036 62.6642 34.806 62.6546L34.9198 63.912C34.8122 63.9217 34.7049 63.9309 34.5977 63.9396ZM29.1282 63.9142C29.021 63.9046 28.9142 63.8945 28.8074 63.884L28.9313 62.6274C29.0337 62.6375 29.137 62.6471 29.2399 62.6563L29.1282 63.9142ZM35.5602 63.8481L35.4228 62.5928C35.5252 62.5819 35.6272 62.5696 35.7296 62.5574L35.8815 63.8109C35.7743 63.824 35.667 63.8363 35.5602 63.8481ZM28.1666 63.8135C28.0597 63.8008 27.9525 63.7872 27.8461 63.7732L28.0098 62.5214C28.1118 62.5346 28.2138 62.5473 28.3163 62.5595L28.1666 63.8135ZM36.5193 63.7277L36.3438 62.4772C36.4458 62.4628 36.5478 62.4479 36.6493 62.4326L36.8384 63.6808C36.7325 63.697 36.6261 63.7124 36.5193 63.7277ZM27.2084 63.6839C27.102 63.6681 26.9952 63.6515 26.8893 63.6344L27.0906 62.3879C27.1922 62.4045 27.2937 62.4203 27.3957 62.4356L27.2084 63.6839ZM37.4757 63.578L37.2608 62.3336C37.3628 62.3161 37.4644 62.2982 37.5655 62.2793L37.7931 63.521C37.6876 63.5412 37.5817 63.5596 37.4757 63.578ZM26.2541 63.5259C26.1482 63.5066 26.0423 63.4869 25.9363 63.4663L26.1758 62.2263C26.2769 62.246 26.378 62.2649 26.4791 62.2833L26.2541 63.5259ZM38.4265 63.3993L38.1735 62.1624C38.275 62.1418 38.3766 62.1204 38.4777 62.0989L38.7408 63.3336C38.6362 63.356 38.5311 63.3779 38.4265 63.3993ZM25.3056 63.3385C25.2005 63.3161 25.0954 63.2934 24.9908 63.2697L25.2662 62.0376C25.3668 62.06 25.4675 62.0819 25.5686 62.1038L25.3056 63.3385ZM39.3698 63.1922L39.0809 61.9632C39.1816 61.9396 39.2818 61.9155 39.3816 61.891L39.6832 63.1173C39.5795 63.1427 39.4748 63.1677 39.3698 63.1922ZM24.3627 63.1226C24.2581 63.0968 24.1539 63.0709 24.0501 63.0442L24.3636 61.8209C24.4634 61.8467 24.5636 61.8717 24.6638 61.8962L24.3627 63.1226ZM40.3074 62.9567L39.9822 61.7364C40.0815 61.7101 40.1809 61.683 40.2803 61.6554L40.6191 62.8717C40.5153 62.9006 40.4111 62.9291 40.3074 62.9567ZM23.4268 62.8774C23.3235 62.849 23.2207 62.8196 23.1178 62.7898L23.4667 61.5762C23.566 61.6046 23.6658 61.6331 23.7656 61.6611L23.4268 62.8774ZM41.2389 62.6926L40.8747 61.4838C40.9736 61.454 41.0726 61.4238 41.1715 61.3927L41.5466 62.5985C41.4442 62.63 41.3413 62.6616 41.2389 62.6926ZM22.4993 62.6046C22.396 62.5727 22.2931 62.5398 22.1907 62.507L22.5781 61.3056C22.6766 61.3375 22.7755 61.3686 22.8744 61.3993L22.4993 62.6046ZM42.1594 62.4002L41.7611 61.2022C41.8587 61.1698 41.9559 61.1366 42.0531 61.1028L42.4659 62.296C42.3639 62.3314 42.2619 62.366 42.1594 62.4002ZM21.577 62.3021C21.4746 62.2666 21.3721 62.2312 21.2706 62.1948L21.6956 61.0056C21.7928 61.0402 21.8904 61.0744 21.988 61.1081L21.577 62.3021ZM43.0717 62.0797L42.637 60.8944C42.7333 60.859 42.8296 60.8231 42.9259 60.7863L43.3741 61.9667C43.2739 62.0048 43.1728 62.0429 43.0717 62.0797ZM20.6648 61.9724C20.5636 61.9339 20.4625 61.8953 20.3618 61.8555L20.8228 60.6803C20.9186 60.718 21.0149 60.7552 21.1117 60.7915L20.6648 61.9724ZM43.9751 61.7316L43.5028 60.5608C43.5983 60.5223 43.6937 60.4833 43.7887 60.4439L44.2719 61.6107C44.173 61.651 44.0741 61.6917 43.9751 61.7316ZM19.7626 61.6142C19.6628 61.5726 19.563 61.5311 19.4636 61.4881L19.9604 60.3274C20.0554 60.3682 20.1504 60.408 20.2458 60.4474L19.7626 61.6142ZM44.8629 61.3581L44.3547 60.2022C44.4492 60.1606 44.5433 60.119 44.637 60.0765L45.1553 61.2281C45.0585 61.2714 44.9609 61.3152 44.8629 61.3581ZM18.8723 61.2289C18.7742 61.1847 18.6761 61.1401 18.5781 61.0945L19.1086 59.9487C19.2027 59.992 19.2968 60.0354 19.391 60.0779L18.8723 61.2289ZM45.7388 60.9575L45.1968 59.8169C45.2896 59.7727 45.3824 59.728 45.4752 59.6829L46.0277 60.8183C45.9318 60.8651 45.8355 60.9115 45.7388 60.9575ZM17.995 60.8174C17.8983 60.7701 17.8016 60.7224 17.7053 60.6742L18.2704 59.545C18.3627 59.5914 18.4555 59.637 18.5483 59.6825L17.995 60.8174ZM46.6028 60.5306L46.0272 59.4067C46.1187 59.3598 46.2097 59.3125 46.3004 59.2648L46.8887 60.3817C46.7937 60.4321 46.6987 60.4816 46.6028 60.5306ZM17.1301 60.3787C17.0347 60.3287 16.9397 60.278 16.8451 60.2267L17.4439 59.1155C17.535 59.1645 17.6265 59.2131 17.718 59.2617L17.1301 60.3787ZM47.4542 60.0774L46.8445 58.9714C46.9346 58.9215 47.0248 58.8716 47.1145 58.8208L47.7344 59.9211C47.6411 59.9737 47.5479 60.0258 47.4542 60.0774ZM16.2796 59.915C16.1859 59.862 16.0922 59.8082 15.999 59.7543L16.632 58.6619C16.7213 58.7136 16.811 58.7648 16.9007 58.8156L16.2796 59.915ZM48.292 59.5984L47.6481 58.5121C47.737 58.4596 47.8254 58.4066 47.9134 58.3532L48.5669 59.4334C48.4759 59.489 48.3844 59.5437 48.292 59.5984ZM15.4435 59.425C15.3516 59.3694 15.2597 59.3134 15.1686 59.2565L15.8335 58.1833C15.9215 58.2376 16.0095 58.2919 16.0984 58.3453L15.4435 59.425ZM49.1141 59.0949L48.4391 58.0279C48.5262 57.9727 48.6129 57.9171 48.6991 57.8611L49.385 58.9211C49.2953 58.9793 49.2051 59.0376 49.1141 59.0949ZM14.6232 58.911C14.533 58.8523 14.4429 58.7932 14.3536 58.7341L15.0504 57.6811C15.1367 57.7385 15.2233 57.795 15.31 57.8514L14.6232 58.911ZM49.9208 58.5669L49.2156 57.5196C49.301 57.4622 49.3855 57.404 49.47 57.3457L50.1874 58.3847C50.099 58.446 50.0101 58.5065 49.9208 58.5669ZM13.8187 58.372C13.7302 58.3107 13.6418 58.249 13.5543 58.1868L14.2831 57.1557C14.3676 57.2153 14.4521 57.2744 14.537 57.3335L13.8187 58.372ZM50.7131 58.0134L49.9747 56.9893C50.0583 56.9289 50.1419 56.8685 50.2246 56.8072L50.9736 57.8239C50.8869 57.8873 50.8002 57.9504 50.7131 58.0134ZM13.0316 57.8094C12.945 57.7455 12.8587 57.6811 12.7725 57.6159L13.5328 56.608C13.6151 56.6702 13.6979 56.7319 13.781 56.7932L13.0316 57.8094ZM51.4883 57.4368L50.7192 56.4355C50.8011 56.3724 50.8829 56.3094 50.9639 56.2455L51.7422 57.2393C51.6577 57.3059 51.5732 57.3716 51.4883 57.4368ZM12.2617 57.2236C12.1772 57.157 12.0927 57.0905 12.0091 57.0231L12.7983 56.0375C12.8789 56.1018 12.9598 56.1662 13.0413 56.2301L12.2617 57.2236ZM52.2456 56.837L51.4463 55.8601C51.5264 55.7945 51.6061 55.7288 51.6853 55.6627L52.4933 56.6325C52.4111 56.7008 52.3283 56.7691 52.2456 56.837ZM11.5096 56.6146C11.4269 56.5458 11.3451 56.4766 11.2632 56.4066L12.0818 55.4451C12.1606 55.5121 12.2393 55.5786 12.3186 55.6447L11.5096 56.6146ZM52.9845 56.2148L52.1559 55.2621C52.2342 55.1942 52.3117 55.1259 52.3896 55.0572L53.2257 56.0033C53.1456 56.0743 53.065 56.1443 52.9845 56.2148ZM10.7769 55.9836C10.6963 55.9123 10.6162 55.8405 10.5366 55.7682L11.3836 54.8321C11.4602 54.9013 11.5368 54.97 11.6138 55.0388L10.7769 55.9836ZM53.7037 55.5712L52.8488 54.6421C52.9245 54.5725 52.9998 54.5024 53.0747 54.4315L53.94 55.3509C53.8617 55.4249 53.7829 55.4985 53.7037 55.5712ZM10.0634 55.3312C9.98504 55.2572 9.90668 55.1828 9.82921 55.1079L10.7051 54.199C10.7791 54.2704 10.8539 54.3413 10.9288 54.4118L10.0634 55.3312ZM54.4045 54.9057L53.522 54.0028C53.596 53.9306 53.6691 53.8579 53.7422 53.7852L54.6338 54.6789C54.5577 54.7546 54.4815 54.8304 54.4045 54.9057ZM9.36959 54.6574C9.29386 54.5817 9.21857 54.5055 9.14329 54.4289L10.0441 53.5444C10.1164 53.6184 10.1895 53.692 10.2626 53.7651L9.36959 54.6574ZM55.0851 54.2187L54.1755 53.343C54.2469 53.269 54.3182 53.1946 54.3887 53.1193L55.3079 53.9849C55.234 54.0633 55.1596 54.1412 55.0851 54.2187ZM8.69636 53.963C8.62283 53.8851 8.54973 53.8062 8.47706 53.7274L9.40505 52.871C9.47508 52.9468 9.54556 53.0225 9.61603 53.0978L8.69636 53.963ZM55.7452 53.5111L54.8089 52.6644C54.8781 52.5877 54.9473 52.5111 55.0155 52.4336L55.9602 53.2708C55.8892 53.3518 55.8175 53.4315 55.7452 53.5111ZM8.04546 53.2498C7.97455 53.1696 7.90364 53.0891 7.8336 53.0081L8.7861 52.1792C8.85395 52.2572 8.92179 52.3347 8.99052 52.4122L8.04546 53.2498ZM56.3839 52.7848L55.4226 51.9669C55.4896 51.8881 55.5566 51.8088 55.6227 51.7296L56.5914 52.5391C56.5226 52.621 56.4535 52.7029 56.3839 52.7848ZM7.41513 52.5168C7.34641 52.4345 7.27856 52.3522 7.21071 52.2694L8.18728 51.4695C8.25294 51.5492 8.3186 51.6293 8.3847 51.7086L7.41513 52.5168ZM57.0002 52.0387L56.0144 51.2501C56.0792 51.1691 56.1436 51.0881 56.2075 51.0067L57.2002 51.7865C57.1342 51.871 57.0676 51.9551 57.0002 52.0387ZM6.80756 51.7655C6.74147 51.681 6.67624 51.5965 6.61102 51.5115L7.61167 50.7414C7.6747 50.8232 7.73817 50.9051 7.80164 50.9866L6.80756 51.7655ZM57.5929 51.276L56.5857 50.5154C56.6478 50.4331 56.7091 50.3504 56.7704 50.2676L57.7864 51.0172C57.7225 51.1035 57.6581 51.1897 57.5929 51.276ZM6.22363 50.9971C6.16016 50.9104 6.09669 50.8237 6.0341 50.737L7.05794 49.9984C7.11835 50.082 7.17876 50.1656 7.24004 50.2484L6.22363 50.9971ZM58.1641 50.494L57.1342 49.7641C57.1937 49.6796 57.2532 49.5951 57.3119 49.5102L58.3493 50.2291C58.288 50.318 58.2263 50.406 58.1641 50.494ZM5.6629 50.2111C5.60206 50.1231 5.54121 50.0343 5.48124 49.9458L6.52654 49.2378C6.58432 49.3232 6.64254 49.4081 6.7012 49.4931L5.6629 50.2111ZM58.7113 49.6945L57.659 48.997C57.7159 48.9108 57.7728 48.8245 57.8288 48.7378L58.8881 49.4248C58.8299 49.515 58.7708 49.6052 58.7113 49.6945ZM5.12581 49.409C5.06759 49.3188 5.00981 49.2286 4.95247 49.1384L6.01834 48.4624C6.07349 48.5491 6.12908 48.6362 6.18511 48.7225L5.12581 49.409ZM59.2344 48.8797L58.1615 48.2146C58.2162 48.1266 58.2701 48.0381 58.3239 47.9497L59.4033 48.6047C59.3473 48.6967 59.2908 48.7882 59.2344 48.8797ZM4.61366 48.5907C4.55807 48.4992 4.50336 48.4072 4.44864 48.3153L5.53421 47.6712C5.58674 47.7601 5.6397 47.8486 5.6931 47.9366L4.61366 48.5907ZM59.7321 48.0491L58.6399 47.416C58.692 47.3262 58.7432 47.2365 58.7945 47.1463L59.8927 47.7693C59.8393 47.8626 59.7859 47.9563 59.7321 48.0491ZM4.12603 47.7584C4.07351 47.6651 4.02098 47.5718 3.96933 47.4777L5.07416 46.8669C5.12406 46.9571 5.17396 47.0469 5.22473 47.1366L4.12603 47.7584ZM60.2053 47.2032L59.0943 46.6038C59.1433 46.5127 59.1919 46.4212 59.2405 46.3297L60.3571 46.9182C60.3068 47.0136 60.256 47.1086 60.2053 47.2032ZM3.66467 46.912C3.61477 46.817 3.5653 46.722 3.51628 46.6265L4.63905 46.0499C4.68589 46.1414 4.73317 46.2325 4.78132 46.3236L3.66467 46.912ZM60.6522 46.3433L59.5233 45.778C59.5697 45.6856 59.6152 45.5928 59.6612 45.4995L60.7953 46.0539C60.748 46.1506 60.7003 46.2469 60.6522 46.3433ZM3.22825 46.0512C3.18142 45.9549 3.13502 45.8586 3.08905 45.7618L4.22934 45.2198C4.27355 45.3126 4.3182 45.4054 4.36328 45.4978L3.22825 46.0512ZM61.0724 45.4707L59.9282 44.9378C59.9715 44.8441 60.0144 44.7504 60.0569 44.6567L61.2077 45.1755C61.163 45.2745 61.1184 45.3726 61.0724 45.4707ZM2.81898 45.1791C2.77476 45.0814 2.73143 44.9833 2.68809 44.8853L3.84414 44.3782C3.88528 44.4724 3.92731 44.5661 3.96933 44.6598L2.81898 45.1791ZM61.4672 44.584L60.3064 44.088C60.3471 43.9925 60.3874 43.8971 60.4272 43.8016L61.5929 44.2863C61.5513 44.3857 61.5097 44.4846 61.4672 44.584ZM2.43596 44.2946C2.39482 44.1961 2.35454 44.0971 2.31427 43.9978L3.48476 43.5253C3.52328 43.6208 3.56224 43.7158 3.60163 43.8108L2.43596 44.2946ZM61.8349 43.6851L60.6587 43.2263C60.6964 43.1295 60.734 43.0323 60.7708 42.9351L61.9505 43.3839C61.9124 43.4846 61.8739 43.5849 61.8349 43.6851ZM2.07921 43.3975C2.04113 43.2968 2.00349 43.1965 1.96628 43.0958L3.15077 42.6588C3.18667 42.756 3.22256 42.8524 3.25933 42.9491L2.07921 43.3975ZM62.1742 42.7771L60.9857 42.3519C61.0203 42.2547 61.0545 42.1571 61.0882 42.0594L62.2818 42.4706C62.2464 42.573 62.2105 42.675 62.1742 42.7771ZM1.7496 42.4885C1.71415 42.3869 1.67957 42.2849 1.64542 42.1829L2.84305 41.7832C2.87544 41.8808 2.90871 41.9784 2.94242 42.0756L1.7496 42.4885ZM62.4863 41.8572L61.2851 41.4697C61.3167 41.3712 61.3482 41.2722 61.3788 41.1733L62.5843 41.548C62.5519 41.6514 62.5195 41.7543 62.4863 41.8572ZM1.44713 41.5695C1.41518 41.467 1.38366 41.3642 1.35258 41.2613L2.56159 40.8974C2.59136 40.9964 2.62156 41.0949 2.6522 41.1934L1.44713 41.5695ZM62.7695 40.9298L61.5565 40.5804C61.585 40.481 61.6134 40.3816 61.641 40.2818L62.857 40.6207C62.8286 40.724 62.7992 40.8269 62.7695 40.9298ZM1.17355 40.6417C1.14466 40.5384 1.11621 40.4342 1.08863 40.3304L2.30771 40.0038C2.33441 40.1036 2.36155 40.2034 2.38956 40.3028L1.17355 40.6417ZM63.0238 39.9972L61.8008 39.6842C61.8266 39.5843 61.8516 39.4841 61.8761 39.3838L63.1022 39.685C63.0768 39.7888 63.0505 39.893 63.0238 39.9972ZM0.927986 39.7061C0.90216 39.6014 0.877209 39.4968 0.852258 39.3921L2.08096 39.1031C2.1046 39.2034 2.12868 39.3037 2.15319 39.4035L0.927986 39.7061ZM63.2497 39.0576L62.0179 38.78C62.0407 38.6798 62.0625 38.5791 62.084 38.4784L63.3184 38.7411C63.2961 38.847 63.2729 38.9525 63.2497 39.0576ZM0.710872 38.7634C0.688548 38.6587 0.666661 38.5537 0.645213 38.4486L1.8818 38.1955C1.90281 38.2966 1.92382 38.3982 1.94527 38.4994L0.710872 38.7634ZM63.4471 38.1092L62.207 37.8719C62.2263 37.7704 62.2455 37.6688 62.2639 37.5672L63.5062 37.7927C63.4874 37.8982 63.4672 38.0037 63.4471 38.1092ZM0.522649 37.8146C0.503389 37.7091 0.484567 37.6035 0.46662 37.4976L1.71065 37.2826C1.72815 37.3846 1.7461 37.4862 1.76492 37.5878L0.522649 37.8146ZM63.6152 37.157L62.3685 36.9573C62.3851 36.8553 62.4009 36.7528 62.4162 36.6504L63.6646 36.8395C63.6489 36.9455 63.6322 37.0514 63.6152 37.157ZM0.363316 36.861C0.34712 36.755 0.331361 36.6482 0.316478 36.5413L1.56663 36.3653C1.58108 36.4678 1.59596 36.5694 1.61128 36.6714L0.363316 36.861ZM63.7548 36.1998L62.5029 36.0383C62.516 35.9354 62.5292 35.8325 62.5414 35.7296L63.7946 35.8811C63.7819 35.9875 63.7688 36.0934 63.7548 36.1998ZM0.232435 35.9025C0.21974 35.7957 0.207046 35.6884 0.195227 35.5816L1.4502 35.4441C1.46158 35.5466 1.4734 35.6486 1.48565 35.751L0.232435 35.9025ZM63.8651 35.2388L62.6088 35.1149C62.6189 35.0115 62.629 34.9086 62.6382 34.8053L63.8953 34.9187C63.8857 35.0255 63.8756 35.1324 63.8651 35.2388ZM0.131319 34.941C0.121689 34.8342 0.112497 34.7269 0.103742 34.6192L1.36221 34.5185C1.37053 34.6214 1.37928 34.7243 1.38848 34.8268L0.131319 34.941ZM63.947 34.2755L62.6876 34.1897C62.6946 34.0864 62.7016 33.983 62.7078 33.8797L63.968 33.9555C63.961 34.0619 63.954 34.1687 63.947 34.2755ZM0.058656 33.9765C0.0520901 33.8692 0.0463995 33.7619 0.040709 33.6542L1.30137 33.5916C1.30662 33.695 1.31231 33.7978 1.31844 33.9007L0.058656 33.9765ZM63.9995 33.3101L62.738 33.2624C62.7419 33.159 62.7454 33.0553 62.7485 32.9515L64.0104 32.9896C64.0069 33.096 64.0034 33.2033 63.9995 33.3101ZM0.014883 33.0106C0.0118189 32.9038 0.00875473 32.7965 0.00656609 32.6897L1.26854 32.6638C1.27073 32.7667 1.27335 32.8701 1.27642 32.973L0.014883 33.0106ZM64.0231 32.3442L62.7612 32.3324C62.762 32.2291 62.7625 32.1257 62.7625 32.0224V31.9777H64.0244V32.0224C64.0249 32.1297 64.0244 32.2369 64.0231 32.3442ZM1.26241 32.0443H0V32.029C0 31.9217 0.000437843 31.8219 0.0013133 31.722L1.26372 31.7339C1.26285 31.8298 1.26241 31.9256 1.26241 32.0215V32.0443ZM62.7555 31.3595C62.7533 31.2562 62.7507 31.1533 62.7472 31.0504L64.0091 31.0101C64.0126 31.1169 64.0153 31.2242 64.0174 31.3315L62.7555 31.3595ZM1.27554 31.1148L0.0135697 31.078C0.0166338 30.9707 0.0205736 30.8634 0.0245131 30.7562L1.28605 30.8052C1.28211 30.9081 1.27861 31.0114 1.27554 31.1148ZM62.7222 30.4317C62.7165 30.328 62.7113 30.2246 62.7047 30.1213L63.9649 30.0456C63.971 30.1524 63.9772 30.2592 63.9829 30.3661L62.7222 30.4317ZM1.31625 30.1861L0.0560294 30.1125C0.0621576 30.0053 0.0691613 29.8976 0.0766027 29.7907L1.33595 29.8774C1.32895 29.9799 1.32194 30.0828 1.31625 30.1861ZM62.6609 29.5044C62.6526 29.4011 62.6434 29.2977 62.6342 29.1944L63.8914 29.0806C63.901 29.187 63.9102 29.2938 63.919 29.4006L62.6609 29.5044ZM1.38454 29.2596L0.127379 29.148C0.137009 29.0407 0.147077 28.9334 0.157583 28.8266L1.41387 28.9514C1.40336 29.0538 1.39373 29.1567 1.38454 29.2596ZM62.5721 28.5797C62.5607 28.4768 62.5484 28.3734 62.5362 28.271L63.7894 28.1191C63.8021 28.2255 63.8143 28.3319 63.8266 28.4382L62.5721 28.5797ZM1.48084 28.3354L0.227181 28.1861C0.239876 28.0788 0.253445 27.9719 0.267015 27.8651L1.51892 28.0289C1.50579 28.1309 1.49309 28.2333 1.48084 28.3354ZM62.4556 27.658C62.4407 27.5556 62.4259 27.4527 62.4105 27.3507L63.6585 27.1611C63.6747 27.267 63.6905 27.373 63.7053 27.4789L62.4556 27.658ZM1.60472 27.415L0.356312 27.2276C0.37207 27.1212 0.388704 27.0148 0.405775 26.9089L1.65199 27.1094C1.63579 27.211 1.62004 27.313 1.60472 27.415ZM62.3112 26.7407C62.2932 26.6387 62.2753 26.5367 62.2565 26.4347L63.4979 26.2075C63.5171 26.3125 63.5359 26.4181 63.5543 26.5236L62.3112 26.7407ZM1.75661 26.4986L0.514332 26.2736C0.533592 26.1676 0.55329 26.0621 0.573425 25.9566L1.81307 26.1939C1.79381 26.2955 1.77499 26.397 1.75661 26.4986ZM62.1383 25.827C62.1177 25.7258 62.0967 25.6247 62.0748 25.524L63.3092 25.2587C63.3315 25.3637 63.3538 25.4688 63.3753 25.5743L62.1383 25.827ZM1.93608 25.5875L0.70168 25.3243C0.724004 25.2192 0.746766 25.1146 0.770404 25.01L2.00261 25.2845C1.97941 25.3852 1.95753 25.4863 1.93608 25.5875ZM61.9387 24.9189C61.915 24.8186 61.891 24.7188 61.8664 24.6185L63.0916 24.3155C63.1175 24.4202 63.1429 24.5248 63.1678 24.6299L61.9387 24.9189ZM2.14312 24.6816L0.917043 24.3817C0.942869 24.277 0.968695 24.1728 0.995396 24.0686L2.21841 24.3817C2.19258 24.4815 2.16763 24.5813 2.14312 24.6816ZM61.7119 24.0196C61.6848 23.9197 61.6576 23.8195 61.6296 23.7201L62.8456 23.3808C62.8745 23.4841 62.9025 23.587 62.9306 23.6907L61.7119 24.0196ZM2.37774 23.7831L1.1613 23.4456C1.19019 23.3422 1.21908 23.2389 1.24884 23.1356L2.46179 23.485C2.43334 23.5839 2.40532 23.6837 2.37774 23.7831ZM61.4572 23.1259C61.4274 23.027 61.3972 22.9285 61.3666 22.83L62.5712 22.453C62.6031 22.5554 62.6347 22.6583 62.6662 22.7612L61.4572 23.1259ZM2.63951 22.8917L1.434 22.5173C1.46595 22.414 1.49878 22.3111 1.53161 22.2082L2.73318 22.5957C2.70123 22.6942 2.67015 22.7927 2.63951 22.8917ZM61.1757 22.2415C61.1424 22.1434 61.1092 22.0453 61.0755 21.9477L62.2683 21.5348C62.3033 21.636 62.3379 21.7375 62.372 21.8391L61.1757 22.2415ZM2.92928 22.0055L1.7356 21.5948C1.77061 21.4924 1.80651 21.3908 1.8424 21.2892L3.03171 21.7126C2.99757 21.8098 2.96299 21.9074 2.92928 22.0055ZM60.8667 21.3649C60.8308 21.2677 60.7944 21.171 60.7577 21.0742L61.9378 20.6254C61.9759 20.7257 62.0135 20.826 62.0507 20.9267L60.8667 21.3649ZM3.2462 21.1285L2.06564 20.6815C2.10416 20.5803 2.14268 20.4796 2.18208 20.3789L3.35738 20.8391C3.32018 20.9354 3.28297 21.0317 3.2462 21.1285ZM60.5318 20.4985C60.4933 20.403 60.4539 20.308 60.4145 20.213L61.5797 19.7279C61.6209 19.8264 61.6611 19.9253 61.7014 20.0247L60.5318 20.4985ZM3.58938 20.2625L2.42283 19.7795C2.46398 19.6797 2.506 19.5803 2.54802 19.4814L3.70932 19.9761C3.66905 20.0716 3.62921 20.167 3.58938 20.2625ZM60.172 19.646C60.1304 19.5518 60.0888 19.4582 60.0464 19.3645L61.1963 18.8439C61.2405 18.9415 61.2843 19.0391 61.3272 19.1372L60.172 19.646ZM3.95882 19.4078L2.80803 18.889C2.85224 18.7909 2.89689 18.6928 2.94198 18.5952L4.08751 19.125C4.04418 19.2187 4.00128 19.3132 3.95882 19.4078ZM59.7868 18.8045C59.7426 18.7116 59.6979 18.6188 59.6524 18.5264L60.7866 17.9717C60.8334 18.0676 60.8798 18.1639 60.9258 18.2607L59.7868 18.8045ZM4.35409 18.5636L3.21906 18.0111C3.26634 17.9139 3.31405 17.8171 3.3622 17.7208L4.4911 18.2856C4.44514 18.3784 4.39918 18.4708 4.35409 18.5636ZM59.3762 17.9756C59.3285 17.8837 59.2812 17.7922 59.2331 17.7007L60.3497 17.1122C60.3996 17.2068 60.4486 17.3014 60.4977 17.3964L59.3762 17.9756ZM4.77431 17.7335L3.65723 17.1459C3.70757 17.0505 3.7579 16.9555 3.80912 16.8609L4.92051 17.4594C4.87105 17.5505 4.82246 17.642 4.77431 17.7335ZM58.9398 17.1577C58.8899 17.0675 58.8395 16.9778 58.7888 16.888L59.8875 16.2659C59.94 16.3591 59.9921 16.4524 60.0442 16.5461L58.9398 17.1577ZM5.21992 16.9161L4.12078 16.2952C4.17375 16.2015 4.22715 16.1078 4.28099 16.0145L5.37356 16.6468C5.32191 16.7361 5.2707 16.8259 5.21992 16.9161ZM58.4789 16.353C58.4268 16.2645 58.3738 16.1765 58.3204 16.0885L59.3994 15.4331C59.455 15.525 59.5101 15.617 59.5653 15.7094L58.4789 16.353ZM5.6896 16.1126L4.60973 15.4585C4.66575 15.3665 4.72178 15.2746 4.77869 15.1831L5.85156 15.8482C5.79728 15.9362 5.74301 16.0246 5.6896 16.1126ZM57.9943 15.5627C57.9391 15.476 57.884 15.3893 57.8279 15.3031L58.8868 14.6156C58.945 14.7058 59.0033 14.796 59.0606 14.8871L57.9943 15.5627ZM6.18336 15.3245L5.12406 14.638C5.18271 14.5473 5.24137 14.4576 5.3009 14.3678L6.3532 15.0649C6.2963 15.1511 6.23983 15.2378 6.18336 15.3245ZM57.4856 14.7877C57.4279 14.7028 57.3697 14.6178 57.3114 14.5333L58.3488 13.814C58.4101 13.9024 58.471 13.9908 58.5309 14.0797L57.4856 14.7877ZM6.70076 14.5513L5.66246 13.8332C5.72375 13.7448 5.78503 13.6568 5.84719 13.5688L6.87847 14.2969C6.81894 14.3814 6.75941 14.4663 6.70076 14.5513ZM56.9547 14.0285C56.8943 13.9449 56.8334 13.8612 56.7722 13.7785L57.7881 13.0289C57.8516 13.1152 57.9151 13.2014 57.9777 13.2886L56.9547 14.0285ZM7.24091 13.7943L6.22495 13.0451C6.28885 12.9584 6.35276 12.8722 6.41755 12.7863L7.42607 13.546C7.36392 13.6283 7.3022 13.7115 7.24091 13.7943ZM56.4001 13.2846C56.337 13.2027 56.274 13.1217 56.2105 13.0407L57.2024 12.2601C57.269 12.3446 57.3346 12.4295 57.4003 12.5145L56.4001 13.2846ZM7.80383 13.0543L6.81063 12.275C6.87716 12.1904 6.9437 12.1059 7.01111 12.0219L7.996 12.8117C7.93121 12.8923 7.8673 12.9733 7.80383 13.0543ZM55.8236 12.5578C55.7579 12.4777 55.6923 12.398 55.6262 12.3187L56.5957 11.51C56.6645 11.5924 56.7323 11.6747 56.8002 11.7579L55.8236 12.5578ZM8.3882 12.3314L7.41907 11.5223C7.48779 11.44 7.55696 11.3577 7.62655 11.2758L8.58781 12.0941C8.52083 12.1729 8.4543 12.2522 8.3882 12.3314ZM55.2243 11.8476C55.1569 11.7697 55.0886 11.6926 55.0204 11.6156L55.9641 10.7771C56.0354 10.8572 56.1064 10.9382 56.1768 11.0192L55.2243 11.8476ZM8.99402 11.6269L8.0494 10.7894C8.12075 10.7088 8.19254 10.6287 8.2652 10.5486L9.20063 11.3966C9.13103 11.4728 9.06231 11.5499 8.99402 11.6269ZM54.6045 11.1563C54.5345 11.0805 54.4644 11.0052 54.394 10.9303L55.3123 10.0639C55.3863 10.1422 55.4594 10.2206 55.5325 10.2999L54.6045 11.1563ZM9.62085 10.9409L8.70162 10.0752C8.77515 9.99687 8.84913 9.91894 8.92354 9.84144L9.83402 10.7162C9.76267 10.7907 9.69132 10.8655 9.62085 10.9409ZM53.9646 10.4833C53.8923 10.4098 53.8201 10.3366 53.747 10.264L54.6391 9.37076C54.7153 9.44694 54.791 9.52313 54.8663 9.60019L53.9646 10.4833ZM10.2674 10.2745L9.37484 9.38171C9.45057 9.30596 9.52674 9.23065 9.60334 9.15534L10.488 10.056C10.414 10.1282 10.3405 10.2013 10.2674 10.2745ZM53.304 9.83005C53.23 9.75869 53.1548 9.68776 53.0799 9.61683L53.9453 8.69736C54.0236 8.77092 54.1016 8.84492 54.179 8.91979L53.304 9.83005ZM10.934 9.62734L10.0682 8.70831C10.1466 8.63475 10.2249 8.5612 10.3041 8.48851L11.1603 9.41673C11.0842 9.48635 11.0089 9.55641 10.934 9.62734ZM52.6251 9.19738C52.5485 9.1282 52.4715 9.05902 52.394 8.99072L53.2309 8.04586C53.3115 8.11723 53.3911 8.18859 53.4708 8.26084L52.6251 9.19738ZM11.6186 9.00078L10.7817 8.05593C10.8618 7.985 10.9424 7.91407 11.0233 7.84358L11.8515 8.79675C11.7736 8.86418 11.6961 8.93248 11.6186 9.00078ZM51.9261 8.58396C51.8477 8.51697 51.7689 8.45086 51.6897 8.38475L52.4973 7.41449C52.58 7.48367 52.6628 7.55285 52.7446 7.62247L51.9261 8.58396ZM12.3225 8.39525L11.514 7.42588C11.5963 7.35714 11.679 7.28883 11.7618 7.22097L12.5611 8.19823C12.4814 8.26346 12.4017 8.32914 12.3225 8.39525ZM51.2095 7.99244C51.1289 7.92808 51.048 7.86372 50.967 7.80023L51.7453 6.80633C51.8302 6.87288 51.9142 6.93944 51.9983 7.00686L51.2095 7.99244ZM13.0439 7.81161L12.2643 6.81815C12.3488 6.75204 12.4337 6.68593 12.5186 6.62069L13.2877 7.62203C13.2063 7.68464 13.1249 7.74769 13.0439 7.81161ZM50.4754 7.42325C50.3927 7.36108 50.3095 7.2989 50.2259 7.23761L50.9753 6.22138C51.0615 6.28487 51.1473 6.34879 51.2331 6.41359L50.4754 7.42325ZM13.7823 7.24943L13.0329 6.2332C13.1192 6.16971 13.2058 6.10623 13.293 6.04362L14.0318 7.06729C13.9482 7.12771 13.8651 7.18857 13.7823 7.24943ZM49.7238 6.87507C49.6394 6.81553 49.5549 6.75642 49.47 6.69775L50.1874 5.65875C50.2763 5.72005 50.3642 5.78135 50.4522 5.84352L49.7238 6.87507ZM14.5365 6.71045L13.8182 5.67233C13.9062 5.61147 13.9951 5.55061 14.0835 5.49062L14.7913 6.53619C14.7064 6.59354 14.6215 6.65177 14.5365 6.71045ZM48.9556 6.3501C48.8698 6.29318 48.7832 6.2367 48.6965 6.18066L49.3824 5.12065C49.473 5.17932 49.5632 5.23843 49.6529 5.29754L48.9556 6.3501ZM15.3069 6.19423L14.6206 5.13466C14.7103 5.07643 14.8005 5.01863 14.8911 4.96128L15.5674 6.02742C15.4803 6.08258 15.3936 6.13819 15.3069 6.19423ZM48.173 5.84878C48.085 5.79449 47.997 5.74063 47.9081 5.68678L48.5617 4.60663C48.654 4.66223 48.7455 4.71871 48.837 4.77519L48.173 5.84878ZM16.0922 5.70166L15.4378 4.62195C15.5298 4.56634 15.6217 4.51118 15.714 4.45645L16.3571 5.54317C16.2682 5.59571 16.1802 5.64825 16.0922 5.70166ZM47.3741 5.37109C47.2848 5.31943 47.1951 5.2682 47.1049 5.21741L47.7252 4.11756C47.8188 4.17054 47.9125 4.22395 48.0057 4.27825L47.3741 5.37109ZM16.8915 5.23317L16.27 4.1342C16.3632 4.08122 16.4569 4.02911 16.5505 3.97745L17.1612 5.08256C17.071 5.13203 16.9813 5.18238 16.8915 5.23317ZM46.5612 4.91793C46.4702 4.86889 46.3792 4.82029 46.2872 4.77213L46.8742 3.65432C46.9696 3.70424 47.0646 3.75503 47.1596 3.80625L46.5612 4.91793ZM17.7048 4.78921L17.1165 3.67228C17.2111 3.62236 17.3065 3.57289 17.4015 3.52385L17.9784 4.64691C17.8869 4.69376 17.7954 4.74104 17.7048 4.78921ZM45.7357 4.48928C45.6433 4.44287 45.5505 4.39734 45.4573 4.3518L46.0097 3.21648C46.1064 3.26377 46.2032 3.3115 46.2995 3.35922L45.7357 4.48928ZM18.5304 4.36975L17.9758 3.23531C18.0721 3.18802 18.1688 3.14161 18.266 3.09564L18.8075 4.23621C18.7147 4.28043 18.6223 4.32509 18.5304 4.36975ZM44.8957 4.0856C44.802 4.04225 44.7079 3.99934 44.6133 3.95687L45.1312 2.80535C45.2297 2.84957 45.3277 2.89423 45.4253 2.93977L44.8957 4.0856ZM19.3678 3.97614L18.8482 2.82549C18.9458 2.78127 19.0434 2.73793 19.1415 2.69502L19.6497 3.85091C19.5551 3.89207 19.4614 3.9341 19.3678 3.97614ZM44.0452 3.70818C43.9498 3.66746 43.8539 3.62762 43.7585 3.58777L44.2413 2.42093C44.3406 2.46209 44.44 2.50368 44.5394 2.54571L44.0452 3.70818ZM20.2165 3.60791L19.732 2.44195C19.8309 2.40079 19.9298 2.36007 20.0292 2.32023L20.5019 3.49101C20.4065 3.52954 20.3115 3.56851 20.2165 3.60791ZM43.1824 3.35616C43.0861 3.3185 42.9894 3.28128 42.8926 3.24451L43.3391 2.06365C43.4402 2.10174 43.5409 2.14071 43.6412 2.17968L43.1824 3.35616ZM21.078 3.26508L20.6293 2.08511C20.7295 2.04701 20.8298 2.00936 20.9305 1.97214L21.3686 3.1565C21.2714 3.19197 21.1747 3.22831 21.078 3.26508ZM42.3091 3.03084C42.2115 2.99625 42.1135 2.96166 42.015 2.92795L42.426 1.73396C42.528 1.76899 42.6296 1.80445 42.7311 1.84079L42.3091 3.03084ZM21.9508 2.94809L21.538 1.75498C21.6396 1.71995 21.7411 1.68536 21.8431 1.65121L22.2436 2.8487C22.146 2.8811 22.0484 2.91438 21.9508 2.94809ZM41.4262 2.7318C41.3278 2.70027 41.2288 2.66875 41.1299 2.6381L41.5037 1.43229C41.607 1.46425 41.7099 1.49665 41.8123 1.52993L41.4262 2.7318ZM22.8328 2.6578L22.4568 1.45243C22.5592 1.42047 22.6617 1.38894 22.7645 1.35785L23.1292 2.56673C23.0302 2.5965 22.9313 2.62671 22.8328 2.6578ZM40.5363 2.46077C40.4374 2.43231 40.3385 2.40429 40.2391 2.37671L40.5757 1.15995C40.6795 1.18885 40.7832 1.21775 40.8865 1.24796L40.5363 2.46077ZM23.7232 2.39422L23.3839 1.1779C23.4872 1.149 23.5905 1.12055 23.6943 1.09296L24.0221 2.31234C23.9223 2.33949 23.823 2.36664 23.7232 2.39422ZM39.6403 2.21777C39.5405 2.19238 39.4407 2.16742 39.34 2.1429L39.6399 0.916512C39.7445 0.941906 39.8487 0.968177 39.9528 0.994885L39.6403 2.21777ZM24.6214 2.15823L24.3194 0.932274C24.4235 0.906441 24.5282 0.881485 24.6328 0.856528L24.9225 2.08554C24.8219 2.10919 24.7216 2.13327 24.6214 2.15823ZM38.7368 2.00148C38.6362 1.97915 38.5359 1.95726 38.4348 1.9358L38.6966 0.700657C38.8021 0.722987 38.9076 0.745754 39.0122 0.769397L38.7368 2.00148ZM25.5266 1.94938L25.2613 0.715105C25.3664 0.692338 25.4719 0.670446 25.5774 0.648992L25.8291 1.88633C25.728 1.90647 25.6273 1.92748 25.5266 1.94938ZM37.8285 1.81321C37.727 1.79394 37.6254 1.77468 37.5234 1.75629L37.7484 0.513699C37.8544 0.532964 37.9594 0.552667 38.0649 0.57237L37.8285 1.81321ZM26.4371 1.76811L26.2099 0.525959C26.3154 0.506694 26.4213 0.487867 26.5268 0.469477L26.7422 1.71382C26.6402 1.73133 26.5386 1.74972 26.4371 1.76811ZM36.9137 1.65252C36.8117 1.63632 36.7097 1.62056 36.6073 1.60523L36.7946 0.356515C36.9006 0.372277 37.0069 0.388914 37.1124 0.405552L36.9137 1.65252ZM27.3533 1.61487L27.1637 0.366585C27.2696 0.350385 27.376 0.335061 27.4824 0.319736L27.6597 1.56977C27.5572 1.58422 27.4548 1.5991 27.3533 1.61487ZM35.994 1.51942C35.8916 1.50628 35.7896 1.49358 35.6867 1.48133L35.836 0.22779C35.9428 0.240487 36.0496 0.253622 36.156 0.267633L35.994 1.51942ZM28.2734 1.48921L28.1215 0.235671C28.2278 0.222973 28.3346 0.210276 28.4414 0.198454L28.5806 1.4533C28.4782 1.46469 28.3753 1.47695 28.2734 1.48921ZM35.0709 1.41434C34.9684 1.40427 34.8656 1.39463 34.7631 1.38544L34.8748 0.127962C34.982 0.137595 35.0888 0.147665 35.196 0.158173L35.0709 1.41434ZM29.197 1.39113L29.0832 0.133654C29.19 0.124022 29.2972 0.114827 29.404 0.10607L29.5056 1.36442C29.4027 1.37318 29.2998 1.38194 29.197 1.39113ZM34.1455 1.33684C34.0431 1.32983 33.9398 1.32326 33.8369 1.31714L33.9104 0.0565941C34.0181 0.0627238 34.1254 0.0697292 34.2322 0.0771725L34.1455 1.33684ZM30.1236 1.32108L30.0466 0.0609726C30.1538 0.054405 30.2611 0.0482755 30.3688 0.0430214L30.4322 1.304C30.3294 1.30925 30.2265 1.31495 30.1236 1.32108ZM33.2179 1.28736C33.1151 1.28342 33.0118 1.27992 32.9085 1.27685L32.9444 0.0145616C33.052 0.0176265 33.1597 0.021129 33.267 0.0255074L33.2179 1.28736ZM31.0516 1.27861L31.0127 0.0167508C31.1199 0.0132481 31.2272 0.0106211 31.3348 0.00843186L31.3598 1.27072C31.2569 1.27291 31.1541 1.27554 31.0516 1.27861ZM32.2891 1.26547C32.1967 1.26459 32.1048 1.26416 32.012 1.26416H31.9787V0.00142651H32.0072C32.1096 -0.00207621 32.2042 0.00186446 32.3 0.00274014L32.2891 1.26547Z" fill="#046F42"/>
<path d="M20.4332 55.8308C20.2677 55.7471 20.1027 55.6626 19.939 55.5755C19.7762 55.4888 19.6142 55.4004 19.4531 55.3102C19.2911 55.2195 19.1309 55.1267 18.9712 55.0326C18.8123 54.9389 18.6547 54.8434 18.498 54.7467C18.3404 54.6495 18.1841 54.5501 18.0287 54.4494C17.8742 54.3491 17.7206 54.2471 17.5682 54.1438C17.415 54.0396 17.2627 53.934 17.1121 53.8268C16.962 53.7199 16.8127 53.6118 16.6648 53.5019C16.5159 53.3911 16.3684 53.2795 16.2227 53.1661C16.0773 53.0531 15.9329 52.9388 15.7902 52.8228C15.6466 52.7059 15.5039 52.5881 15.3625 52.4681C15.222 52.349 15.0833 52.2278 14.9458 52.1056C14.8075 51.983 14.6705 51.8582 14.5348 51.7326C14.3995 51.6074 14.266 51.4808 14.1334 51.3525C14.0003 51.2242 13.869 51.0942 13.7386 50.9629C13.609 50.8319 13.4807 50.7001 13.3538 50.5666C13.2264 50.4326 13.1003 50.2973 12.976 50.1607C12.8522 50.0246 12.7296 49.8875 12.6083 49.7487C12.4866 49.6095 12.3663 49.4689 12.2476 49.3271C12.1299 49.1861 12.013 49.0442 11.8983 48.9006C11.7828 48.7561 11.669 48.6103 11.5569 48.4637C11.4453 48.3179 11.3359 48.1703 11.2273 48.0219C11.1183 47.873 11.0111 47.7224 10.9051 47.5709C10.7996 47.4203 10.6963 47.2684 10.5939 47.1151L9.86071 47.6046L8.77208 48.3314C8.77077 48.3297 8.76989 48.3279 8.76858 48.3262C8.73662 48.3564 8.69985 48.38 8.65477 48.3866C8.59217 48.3958 8.51907 48.479 8.45998 48.5166C8.41314 48.5468 8.36805 48.5801 8.32166 48.6108C8.42846 48.7701 8.53264 48.9313 8.64207 49.0885C9.00364 49.6077 9.38184 50.1143 9.77623 50.6064C10.1951 51.1292 10.632 51.6362 11.085 52.1271C11.5718 52.6542 12.0774 53.1626 12.6009 53.6507C13.173 54.1845 13.767 54.6937 14.3803 55.1784C15.0675 55.7213 15.7792 56.2331 16.5138 56.7108C17.3756 57.2717 18.2686 57.7861 19.1874 58.2511C20.3798 58.8549 21.6164 59.3764 22.8893 59.8063L23.394 58.312L23.7617 57.224C22.6135 56.8356 21.5017 56.3697 20.4332 55.8308Z" fill="#046F42"/>
<path d="M47.7185 9.1074C46.8755 8.54565 46.0083 8.03207 45.1193 7.56796C43.9685 6.9668 42.7809 6.4484 41.5627 6.0145C38.6615 4.9812 35.5869 4.42602 32.4146 4.38048L32.229 4.3783L32.2181 5.87921L32.2094 7.10429C32.2649 7.10472 32.3201 7.10385 32.3757 7.10472C38.3949 7.19185 43.9011 9.34033 48.2333 12.868L48.8365 12.1267L49.9531 10.7546C49.9054 10.7156 49.8564 10.6779 49.8082 10.639C49.1302 10.0943 48.4329 9.58377 47.7185 9.1074Z" fill="#046F42"/>
<path d="M24.8482 5.77286L24.7283 5.3175C24.2345 5.44798 23.7456 5.59291 23.261 5.74965C22.0231 6.14984 20.8158 6.63409 19.6484 7.1989C18.7384 7.63937 17.8524 8.128 16.9945 8.66216C16.26 9.11927 15.5465 9.61052 14.8557 10.1329C14.2376 10.6 13.6384 11.0922 13.0593 11.6084C12.5283 12.0817 12.0144 12.5747 11.5189 13.0878C11.058 13.5655 10.6132 14.0599 10.1851 14.5704C9.8249 14.9999 9.47646 15.4399 9.1416 15.8913L9.36922 16.0603L11.3298 17.5157C14.7629 12.8895 19.7084 9.46078 25.4229 7.95243L25.2457 7.28034L24.8482 5.77286Z" fill="#046F42"/>
<path d="M60.4372 31.8172C60.4197 31.3142 60.39 30.8128 60.3466 30.3141C60.3029 29.8102 60.2455 29.3084 60.1755 28.8097C60.1041 28.3049 60.0192 27.8031 59.9216 27.3044C59.8222 26.7987 59.7097 26.2961 59.5832 25.7978C59.4545 25.2912 59.3127 24.7882 59.156 24.2899C58.9962 23.782 58.822 23.2789 58.6338 22.7807C58.4412 22.2715 58.2337 21.7679 58.0113 21.2701C57.7837 20.7596 57.5403 20.2556 57.2816 19.7578C57.0159 19.246 56.734 18.7411 56.4355 18.2438C56.1278 17.7306 55.8034 17.2249 55.4616 16.728C55.4314 16.6842 55.3998 16.6408 55.3696 16.597C55.2033 16.6675 55.037 16.7385 54.8811 16.83C54.882 16.8313 54.8833 16.8326 54.8842 16.8339L53.0895 18.0901C53.195 18.2407 53.2987 18.3926 53.4007 18.5454C53.5032 18.6987 53.6043 18.8532 53.7036 19.0091C53.8026 19.1641 53.8997 19.32 53.9952 19.4772C54.091 19.6348 54.1856 19.7933 54.2784 19.9531C54.3703 20.112 54.4613 20.2718 54.5502 20.4325C54.6391 20.5941 54.727 20.7561 54.8128 20.9198C54.8978 21.0823 54.9809 21.2465 55.0628 21.4107C55.1446 21.5757 55.2243 21.7425 55.3031 21.9094C55.381 22.0753 55.4567 22.2426 55.5312 22.4102C55.606 22.5788 55.6787 22.7483 55.7496 22.9181C55.8205 23.0871 55.8892 23.257 55.9562 23.4278C56.024 23.5999 56.0897 23.7728 56.154 23.9466C56.2175 24.1191 56.2797 24.2921 56.3396 24.4663C56.3996 24.641 56.4587 24.8166 56.5152 24.9931C56.5712 25.1682 56.6259 25.3442 56.678 25.5211C56.7305 25.6984 56.7804 25.8766 56.829 26.0553C56.8772 26.2326 56.9231 26.4112 56.9678 26.5899C57.0124 26.7689 57.0549 26.9493 57.096 27.1297C57.1367 27.3092 57.1753 27.4892 57.212 27.67C57.2488 27.8508 57.2843 28.0325 57.3171 28.2147C57.3499 28.3955 57.3814 28.5768 57.4103 28.7589C57.4392 28.9415 57.4672 29.1241 57.4926 29.3075C57.5176 29.4897 57.5403 29.6723 57.5613 29.8557C57.5824 30.0392 57.6007 30.2231 57.6183 30.4074C57.6353 30.5904 57.6502 30.7739 57.6633 30.9582C57.6765 31.1425 57.6879 31.3273 57.697 31.5125C57.7062 31.696 57.7141 31.8798 57.7194 32.0642C57.7246 32.2481 57.729 32.4324 57.7303 32.6176C57.7316 32.8015 57.7316 32.9858 57.7294 33.1702C57.7294 33.1833 57.7294 33.1964 57.7294 33.2096C57.7268 33.3952 57.7211 33.5795 57.7146 33.7643C57.708 33.9486 57.6988 34.1325 57.6883 34.316C57.6778 34.5012 57.6651 34.6855 57.6506 34.8694C57.6362 35.0533 57.62 35.2368 57.6021 35.4198C57.5837 35.6041 57.564 35.7884 57.5417 35.9715C57.5193 36.1545 57.4961 36.3371 57.4703 36.5192C57.444 36.7027 57.4156 36.8857 57.3854 37.0678C57.3552 37.2495 57.3228 37.4308 57.2886 37.6112C57.2545 37.7933 57.2182 37.9746 57.1801 38.1554C56.3112 42.293 54.4513 46.0589 51.8625 49.1986L52.4968 49.7218L53.965 50.9329C54.2819 50.5489 54.5865 50.1557 54.8816 49.7564C55.2401 49.2713 55.5824 48.7757 55.908 48.2695C56.2219 47.7822 56.5209 47.2857 56.8036 46.7809C57.0781 46.2913 57.3381 45.7948 57.5832 45.2904C57.8218 44.7996 58.0464 44.3022 58.2565 43.7983C58.4618 43.3062 58.6517 42.8079 58.8295 42.3048C59.0037 41.8109 59.1643 41.3127 59.3114 40.81C59.4558 40.3153 59.5872 39.8166 59.7049 39.3139C59.8209 38.8179 59.9238 38.3187 60.0131 37.8165C60.1019 37.3196 60.1781 36.82 60.2403 36.3182C60.302 35.8204 60.3497 35.3204 60.3851 34.8186C60.4202 34.3195 60.4429 33.8195 60.4517 33.3177C60.4521 33.2945 60.453 33.2717 60.4534 33.2485C60.4596 32.7708 60.4534 32.2932 60.4372 31.8172Z" fill="#046F42"/>
<path d="M57.8978 32.5893C57.8978 46.9548 46.2552 58.6 31.8939 58.6C17.5325 58.6 5.88992 46.9548 5.88992 32.5893C5.88992 18.2237 17.5325 6.57852 31.8939 6.57852C46.2552 6.57852 57.8978 18.2237 57.8978 32.5893Z" stroke="#046F42" stroke-width="1.83282"/>
<path d="M38.6265 20.1406H25.1804C23.7937 20.1406 22.6591 21.2755 22.6591 22.6626V41.9192C22.6591 43.3063 23.7937 44.4412 25.1804 44.4412H38.6261C40.0128 44.4412 41.1474 43.3063 41.1474 41.9192V22.6626C41.1479 21.2755 40.0133 20.1406 38.6265 20.1406ZM33.4946 31.9706C33.5484 32.4334 33.1869 32.8397 32.7211 32.8397H31.0862C30.6205 32.8397 30.2585 32.4334 30.3128 31.9706L30.7737 28.0108C30.04 27.569 29.5839 26.7135 29.7363 25.7651C29.8899 24.8097 30.6905 24.0527 31.6518 23.9455C32.9781 23.7979 34.1009 24.8321 34.1009 26.129C34.1009 26.9285 33.6723 27.6264 33.0341 28.0108L33.4946 31.9706Z" fill="url(#paint0_linear_293_730)"/>
<defs>
<linearGradient id="paint0_linear_293_730" x1="31.9032" y1="20.1406" x2="31.9032" y2="44.4412" gradientUnits="userSpaceOnUse">
<stop stop-color="#057A49"/>
<stop offset="1" stop-color="#09A564"/>
</linearGradient>
</defs>
</svg>
